# xmcd
#
# Track frame offsets: 
#        182
#        13212
#        30232
#        53462
#        67332
#        76080
#        94277
#        110655
#        117835
#        128720
#        137332
#        147080
#        166342
#        171197
#        180427
#        194710
#        209400
#        221567
#
# Disc length: 3259 seconds
#
# Revision: 2
# Processed by: cddbd v1.5.1PL0 Copyright (c) Steve Scherf et al.
# Submitted via: ExactAudioCopy v0.95a4
#
DISCID=fd0cb912
DTITLE=Ry Cooder - Music by Ry Cooder, cd1
DYEAR=1900
DGENRE=Soundtrack
TTITLE0=Paris, Texas
TTITLE1=Theme from Southern Comfort
TTITLE2=Theme from Alamo Bay
TTITLE3=Across the Borderline
TTITLE4=Highway
TTITLE5=Bomber Bash
TTITLE6=Greenhouse
TTITLE7=Nice Bike
TTITLE8=I Like Your Eyes
TTITLE9=Main Theme
TTITLE10=See You Hell, Blind Boy
TTITLE11=Feelin' Bad Blues
TTITLE12=Swamp Walk
TTITLE13=Angola
TTITLE14=Viola Lee Blues
TTITLE15=The Long Riders
TTITLE16=Archie's Funeral (Hold On To God's Unchanging Hand)
TTITLE17=Jesse James
EXTD=
EXTT0=
EXTT1=
EXTT2=
EXTT3=
EXTT4=
EXTT5=
EXTT6=
EXTT7=
EXTT8=
EXTT9=
EXTT10=
EXTT11=
EXTT12=
EXTT13=
EXTT14=
EXTT15=
EXTT16=
EXTT17=
PLAYORDER=
